<svg width="25" height="25" viewBox="0 0 25 25" fill="none" xmlns="http://www.w3.org/2000/svg">
<circle cx="20" cy="5" r="5" fill="#951025"/>
<path d="M17.5042 21.6682L16.5177 10.9764C16.4563 10.2876 15.779 9.74801 14.9758 9.74801H13.0273V9.67268C13.0273 7.64755 11.1119 6 8.7574 6C6.40295 6 4.48749 7.64755 4.48749 9.67268V9.74801H2.53902C1.73581 9.74801 1.05849 10.2876 0.997226 10.975L0.0104375 21.6697C-0.0659273 22.526 0.27944 23.3785 0.957922 24.0085C1.6364 24.6386 2.59821 25 3.59669 25H13.9181C14.9165 25 15.8784 24.6386 16.5569 24.0085C17.2354 23.3785 17.5807 22.526 17.5042 21.6682ZM5.78137 9.67268C5.78137 8.26122 7.11646 7.11291 8.7574 7.11291C10.3983 7.11291 11.7334 8.26126 11.7334 9.67268V9.74801H5.78137V9.67268Z" fill="#505050"/>
<path d="M17.5042 21.6682L16.5177 10.9764C16.4563 10.2876 15.779 9.74801 14.9758 9.74801H13.0273V9.67268C13.0273 7.64755 11.1119 6 8.7574 6C6.40295 6 4.48749 7.64755 4.48749 9.67268V9.74801H2.53902C1.73581 9.74801 1.05849 10.2876 0.997226 10.975L0.0104375 21.6697C-0.0659273 22.526 0.27944 23.3785 0.957922 24.0085C1.6364 24.6386 2.59821 25 3.59669 25H13.9181C14.9165 25 15.8784 24.6386 16.5569 24.0085C17.2354 23.3785 17.5807 22.526 17.5042 21.6682ZM5.78137 9.67268C5.78137 8.26122 7.11646 7.11291 8.7574 7.11291C10.3983 7.11291 11.7334 8.26126 11.7334 9.67268V9.74801H5.78137V9.67268Z" stroke="#951025"/>
<ellipse cx="5.36364" cy="17.5" rx="1.36364" ry="1.5" fill="#1C1C1E"/>
<ellipse cx="12.6363" cy="17.5" rx="1.36364" ry="1.5" fill="#1C1C1E"/>
<ellipse cx="8.99999" cy="17.5" rx="1.36364" ry="1.5" fill="#1C1C1E"/>
</svg>
