<svg width="21" height="22" viewBox="0 0 21 22" fill="none" xmlns="http://www.w3.org/2000/svg">
<path d="M15.5106 22C15.9906 22 16.4508 21.8091 16.7902 21.4693C17.1296 21.1296 17.3202 20.6687 17.3202 20.1882C17.3202 19.7077 17.1296 19.2469 16.7902 18.9071C16.4508 18.5674 15.9906 18.3765 15.5106 18.3765C15.0307 18.3765 14.5704 18.5674 14.2311 18.9071C13.8917 19.2469 13.7011 19.7077 13.7011 20.1882C13.7011 20.6687 13.8917 21.1296 14.2311 21.4693C14.5704 21.8091 15.0307 22 15.5106 22ZM7.23829 22C7.71822 22 8.17849 21.8091 8.51785 21.4693C8.85722 21.1296 9.04787 20.6687 9.04787 20.1882C9.04787 19.7077 8.85722 19.2469 8.51785 18.9071C8.17849 18.5674 7.71822 18.3765 7.23829 18.3765C6.75836 18.3765 6.29809 18.5674 5.95873 18.9071C5.61937 19.2469 5.42872 19.7077 5.42872 20.1882C5.42872 20.6687 5.61937 21.1296 5.95873 21.4693C6.29809 21.8091 6.75836 22 7.23829 22ZM3.71221 2.78494L3.5054 5.32141C3.46404 5.808 3.84664 6.21177 4.33264 6.21177H20.1638C20.5981 6.21177 20.96 5.88047 20.991 5.44565C21.1255 3.61318 19.7295 2.12235 17.8993 2.12235H5.19089C5.08749 1.66682 4.88068 1.232 4.56012 0.869647C4.0431 0.320941 3.31927 0 2.57476 0H0.775531C0.351574 0 0 0.352 0 0.776471C0 1.20094 0.351574 1.55294 0.775531 1.55294H2.57476C2.89532 1.55294 3.19519 1.68753 3.41234 1.91529C3.62949 2.15341 3.73289 2.464 3.71221 2.78494ZM19.9156 7.76471H4.05344C3.61915 7.76471 3.26757 8.096 3.22621 8.52047L2.85396 13.024C2.81846 13.4413 2.86987 13.8614 3.00495 14.2577C3.14003 14.6541 3.35583 15.018 3.63869 15.3265C3.92155 15.635 4.2653 15.8813 4.64819 16.0499C5.03107 16.2185 5.44474 16.3057 5.86302 16.3059H17.3616C18.9126 16.3059 20.2776 15.0325 20.3913 13.4795L20.7325 8.64471C20.7424 8.53192 20.7285 8.41832 20.6918 8.31124C20.655 8.20417 20.5963 8.106 20.5193 8.02307C20.4423 7.94014 20.3488 7.8743 20.2448 7.82979C20.1409 7.78529 20.0287 7.76312 19.9156 7.76471Z" fill="#505050"/>
</svg>
