<svg width="30" height="30" viewBox="0 0 30 30" fill="none" xmlns="http://www.w3.org/2000/svg">
<path d="M27.5 10V20C27.5 22.0625 25.8125 23.75 23.75 23.75H21.25C20.5625 23.75 20 23.1875 20 22.5V18.75H10V22.5C10 23.1875 9.4375 23.75 8.75 23.75H6.25C4.1875 23.75 2.5 22.0625 2.5 20V10C2.5 7.9375 4.1875 6.25 6.25 6.25H8.75C9.4375 6.25 10 6.8125 10 7.5V11.25H20V7.5C20 6.8125 20.5625 6.25 21.25 6.25H23.75C25.8125 6.25 27.5 7.9375 27.5 10Z" fill="#505050"/>
<path d="M10 7.5V22.5C10 23.1875 9.4375 23.75 8.75 23.75H6.25C4.1875 23.75 2.5 22.0625 2.5 20V10C2.5 7.9375 4.1875 6.25 6.25 6.25H8.75C9.4375 6.25 10 6.8125 10 7.5ZM27.5 10V20C27.5 22.0625 25.8125 23.75 23.75 23.75H21.25C20.5625 23.75 20 23.1875 20 22.5V7.5C20 6.8125 20.5625 6.25 21.25 6.25H23.75C25.8125 6.25 27.5 7.9375 27.5 10Z" fill="#505050"/>
</svg>
