<svg width="19" height="17" viewBox="0 0 19 17" fill="none" xmlns="http://www.w3.org/2000/svg">
<path d="M15.7668 7.4621V5.98565C15.7668 3.16862 13.4752 0.876953 10.6581 0.876953H5.47698C2.65995 0.876953 0.368286 3.16862 0.368286 5.98565V11.973C0.368286 12.3443 0.676257 12.6523 1.04763 12.6523H5.83024C6.07481 14.6904 7.80488 16.2755 9.90633 16.2755H17.8049C18.1763 16.2755 18.4842 15.9675 18.4842 15.5962V11.3208C18.4842 9.54543 17.352 8.02369 15.7668 7.4621ZM1.72698 11.2936V5.98565C1.72698 3.92043 3.41176 2.23565 5.47698 2.23565H10.6581C12.7234 2.23565 14.4081 3.92043 14.4081 5.98565V7.54362C14.4081 7.90594 14.3538 8.25014 14.2542 8.57623C13.8103 10.1433 12.361 11.2936 10.6581 11.2936H1.72698ZM17.1255 14.9168H9.90633C8.55669 14.9168 7.4335 13.9385 7.20705 12.6523H10.6581C13.0223 12.6523 15.006 11.04 15.5947 8.86608C16.5005 9.30992 17.1255 10.2429 17.1255 11.3208V14.9168Z" fill="#333333"/>
<path d="M4.44437 7.66996C4.32662 7.66996 4.20886 7.65185 4.10017 7.5975C3.99147 7.55221 3.89184 7.4888 3.80126 7.40728C3.63821 7.23518 3.53857 6.99967 3.53857 6.76417C3.53857 6.52866 3.63821 6.29315 3.80126 6.12105C3.89184 6.03953 3.98241 5.97612 4.10017 5.93083C4.42626 5.7859 4.83386 5.86743 5.08749 6.12105C5.25053 6.29315 5.35017 6.52866 5.35017 6.76417C5.35017 6.99967 5.25053 7.23518 5.08749 7.40728C5.0422 7.44351 4.99691 7.47975 4.94256 7.51598C4.89727 7.55221 4.84292 7.57938 4.78857 7.5975C4.73423 7.62467 4.67988 7.64279 4.62553 7.65185C4.56212 7.6609 4.50778 7.66996 4.44437 7.66996Z" fill="#333333"/>
<path d="M8.06754 7.66996C7.94979 7.66996 7.83203 7.65185 7.72334 7.5975C7.60558 7.55221 7.515 7.4888 7.42442 7.40728C7.26138 7.23518 7.16174 6.99967 7.16174 6.76417C7.16174 6.52866 7.26138 6.29315 7.42442 6.12105C7.515 6.03953 7.60558 5.97612 7.72334 5.93083C8.04942 5.7859 8.45703 5.86743 8.71066 6.12105C8.8737 6.29315 8.97334 6.52866 8.97334 6.76417C8.97334 6.99967 8.8737 7.23518 8.71066 7.40728C8.53855 7.57033 8.30305 7.66996 8.06754 7.66996Z" fill="#333333"/>
<path d="M11.6907 7.6699C11.4552 7.6699 11.2197 7.57026 11.0476 7.40722C10.8845 7.23512 10.7849 6.99961 10.7849 6.7641C10.7849 6.5286 10.8845 6.29309 11.0476 6.12099C11.3827 5.78584 11.9896 5.78584 12.3338 6.12099C12.4969 6.29309 12.5965 6.5286 12.5965 6.7641C12.5965 6.99961 12.4969 7.23512 12.3338 7.40722C12.2885 7.44345 12.2432 7.48874 12.1889 7.51592C12.1436 7.55215 12.0893 7.57932 12.0349 7.59744C11.9806 7.62461 11.9262 7.64273 11.8628 7.65178C11.8085 7.66084 11.7451 7.6699 11.6907 7.6699Z" fill="#333333"/>
</svg>
