<svg width="32" height="48" viewBox="0 0 32 48" fill="none" xmlns="http://www.w3.org/2000/svg">
<path d="M31.4688 15.4688C31.4688 6.92559 24.5432 0 16 0C7.45684 0 0.53125 6.92559 0.53125 15.4688C0.53125 22.8858 5.75191 29.0826 12.7188 30.5876V34.875H7.5625C6.78587 34.875 6.15625 35.5046 6.15625 36.2812V40.0312C6.15625 40.8079 6.78587 41.4375 7.5625 41.4375H12.7188V46.5938C12.7188 47.3704 13.3484 48 14.125 48H17.875C18.6516 48 19.2812 47.3704 19.2812 46.5938V41.4375H24.4375C25.2141 41.4375 25.8438 40.8079 25.8438 40.0312V36.2812C25.8438 35.5046 25.2141 34.875 24.4375 34.875H19.2812V30.5876C26.2481 29.0826 31.4688 22.8858 31.4688 15.4688ZM7.09375 15.4688C7.09375 10.55 11.0812 6.5625 16 6.5625C20.9188 6.5625 24.9062 10.55 24.9062 15.4688C24.9062 20.3875 20.9188 24.375 16 24.375C11.0812 24.375 7.09375 20.3875 7.09375 15.4688Z" fill="white"/>
</svg>
