<svg width="17" height="18" viewBox="0 0 17 18" fill="none" xmlns="http://www.w3.org/2000/svg">
<path d="M0.795303 17.1812H4.87139C4.89856 17.1812 4.91668 17.1812 4.94385 17.1721C4.97103 17.1812 4.9982 17.1812 5.02538 17.1812H12.8968C14.0833 17.1812 15.1069 16.3388 15.3424 15.1793L16.4294 9.74456C16.5743 9.01086 16.3841 8.25905 15.9131 7.67934C15.433 7.09963 14.7355 6.76449 13.9837 6.76449H10.6685L11.3931 4.06521C11.6015 3.29528 11.4384 2.49818 10.9583 1.86412C10.4783 1.23912 9.74458 0.876804 8.94748 0.876804C8.72103 0.876804 8.51269 0.9855 8.38588 1.16666L4.50907 6.76449H0.795303C0.423927 6.76449 0.115955 7.07246 0.115955 7.44383V16.5018C0.115955 16.8732 0.423927 17.1812 0.795303 17.1812ZM9.27356 2.28079C9.50907 2.34419 9.72646 2.48912 9.88045 2.69746C10.1069 2.98731 10.1794 3.34963 10.0797 3.70289L9.11958 7.26267C9.06523 7.47101 9.11052 7.6884 9.23733 7.8605C9.36414 8.02354 9.56342 8.12318 9.78081 8.12318H13.9837C14.3279 8.12318 14.6449 8.27717 14.8623 8.53985C15.0707 8.80253 15.1612 9.14673 15.0978 9.48188L14.0109 14.9167C13.9022 15.442 13.4312 15.8225 12.8968 15.8225H5.55074V7.66122L9.27356 2.28079ZM1.47465 8.12318H4.19204V15.8225H1.47465V8.12318Z" fill="#333333"/>
</svg>
