<svg width="96" height="44" viewBox="0 0 96 44" fill="none" xmlns="http://www.w3.org/2000/svg">
<rect width="96" height="44" rx="10" fill="#951025"/>
<path d="M53.2646 27V15.7275L60.9619 23.7803V16.4453H62.5547V27.6426L54.8574 19.6104V27H53.2646ZM66.055 20.3418V27H64.5169V20.3418H66.055ZM64.2845 17.5732C64.2845 17.3044 64.3824 17.0719 64.5784 16.876C64.7744 16.68 65.0091 16.582 65.2825 16.582C65.5605 16.582 65.7975 16.68 65.9934 16.876C66.1894 17.0674 66.2874 17.3021 66.2874 17.5801C66.2874 17.8581 66.1894 18.0951 65.9934 18.291C65.802 18.487 65.5673 18.585 65.2893 18.585C65.0113 18.585 64.7744 18.487 64.5784 18.291C64.3824 18.0951 64.2845 17.8558 64.2845 17.5732ZM69.2613 15.4541V22.4951L71.4283 20.3418H73.4927L70.6011 23.1377L73.7046 27H71.7086L69.5074 24.1904L69.2613 24.4365V27H67.7232V15.4541H69.2613ZM80.2469 24.0332H75.4754C75.5164 24.5801 75.6942 25.0153 76.0086 25.3389C76.3231 25.6579 76.7264 25.8174 77.2186 25.8174C77.6014 25.8174 77.9181 25.7262 78.1688 25.5439C78.4149 25.3617 78.6952 25.0244 79.0096 24.5322L80.3084 25.2568C80.1079 25.5986 79.896 25.8926 79.6727 26.1387C79.4494 26.3802 79.2101 26.5807 78.9549 26.7402C78.6997 26.8952 78.424 27.0091 78.1278 27.082C77.8315 27.1549 77.5103 27.1914 77.1639 27.1914C76.1704 27.1914 75.3729 26.8724 74.7713 26.2344C74.1698 25.5918 73.869 24.7396 73.869 23.6777C73.869 22.625 74.1607 21.7728 74.744 21.1211C75.3319 20.4785 76.1112 20.1572 77.0819 20.1572C78.0617 20.1572 78.8364 20.4694 79.4061 21.0938C79.9712 21.7135 80.2537 22.5726 80.2537 23.6709L80.2469 24.0332ZM78.6678 22.7754C78.4536 21.9551 77.9364 21.5449 77.1161 21.5449C76.9292 21.5449 76.7537 21.5745 76.5897 21.6338C76.4256 21.6885 76.2752 21.7705 76.1385 21.8799C76.0064 21.9847 75.8924 22.1123 75.7967 22.2627C75.701 22.4131 75.6281 22.584 75.578 22.7754H78.6678Z" fill="white"/>
<path d="M16.9691 27.9947C15.8965 27.9515 15.0189 27.6541 14.3327 27.1018C14.2017 26.9963 13.8897 26.6799 13.785 26.5465C13.5067 26.1919 13.3175 25.8469 13.1913 25.4641C12.803 24.2857 13.0029 22.7393 13.7629 21.0422C14.4137 19.5893 15.4178 18.1483 17.1697 16.1525C17.4277 15.8589 18.1962 15 18.2012 15C18.203 15 18.1612 15.0735 18.1084 15.163C17.6529 15.9361 17.2632 16.8467 17.0508 17.635C16.7098 18.9 16.7509 19.9855 17.1713 20.8273C17.4614 21.4072 17.9586 21.9095 18.5177 22.1872C19.4965 22.6731 20.9295 22.7133 22.6795 22.3048C22.8 22.2765 28.7705 20.6706 35.9473 18.736C43.1242 16.8013 48.9971 15.2196 48.998 15.2209C49.0001 15.2226 32.3242 22.4527 23.6675 26.2036C22.2966 26.7975 21.9299 26.9475 21.2854 27.1768C19.6379 27.763 18.1621 28.0427 16.9691 27.9947Z" fill="white"/>
</svg>
