<svg width="19" height="21" viewBox="0 0 19 21" fill="none" xmlns="http://www.w3.org/2000/svg">
<path fill-rule="evenodd" clip-rule="evenodd" d="M16.4866 7.16301C16.4866 8.47127 16.8324 9.24238 17.5933 10.131C18.1699 10.7856 18.3542 11.626 18.3542 12.5377C18.3542 13.4483 18.055 14.3128 17.4556 15.0147C16.6709 15.8561 15.5641 16.3932 14.4347 16.4866C12.7979 16.6261 11.1601 16.7436 9.50056 16.7436C7.83998 16.7436 6.20322 16.6733 4.56645 16.4866C3.43593 16.3932 2.32923 15.8561 1.54553 15.0147C0.946103 14.3128 0.645874 13.4483 0.645874 12.5377C0.645874 11.626 0.831188 10.7856 1.4068 10.131C2.19154 9.24238 2.51454 8.47127 2.51454 7.16301V6.71923C2.51454 4.96718 2.95143 3.82154 3.85108 2.70002C5.18865 1.06443 7.3327 0.0834961 9.45397 0.0834961H9.54714C11.714 0.0834961 13.9274 1.11164 15.2422 2.81752C16.0952 3.91596 16.4866 5.01334 16.4866 6.71923V7.16301ZM6.45179 18.8969C6.45179 18.3723 6.93319 18.1321 7.37835 18.0292C7.8991 17.9191 11.0722 17.9191 11.5929 18.0292C12.0381 18.1321 12.5195 18.3723 12.5195 18.8969C12.4936 19.3962 12.2007 19.839 11.7959 20.1201C11.271 20.5293 10.655 20.7884 10.0111 20.8818C9.65492 20.928 9.305 20.929 8.96128 20.8818C8.31631 20.7884 7.70032 20.5293 7.17648 20.1191C6.77065 19.839 6.47767 19.3962 6.45179 18.8969Z" fill="#505050"/>
</svg>
