<svg width="17" height="18" viewBox="0 0 17 18" fill="none" xmlns="http://www.w3.org/2000/svg">
<path d="M13.7138 10.8407C12.7265 10.8407 11.8388 11.2936 11.25 12.0183L6.82065 9.79906C6.88406 9.55449 6.92029 9.29181 6.92029 9.02913C6.92029 8.76645 6.88406 8.50376 6.82065 8.2592L11.25 6.04C11.8388 6.76463 12.7265 7.21753 13.7138 7.21753C15.462 7.21753 16.8841 5.79543 16.8841 4.04724C16.8841 2.29905 15.462 0.876953 13.7138 0.876953C11.9656 0.876953 10.5435 2.29905 10.5435 4.04724C10.5435 4.30992 10.5797 4.57261 10.6431 4.81717L6.21377 7.03637C5.625 6.31174 4.73732 5.85884 3.75 5.85884C2.00181 5.85884 0.579712 7.28094 0.579712 9.02913C0.579712 10.7773 2.00181 12.1994 3.75 12.1994C4.73732 12.1994 5.625 11.7465 6.21377 11.0219L10.6431 13.2411C10.5797 13.4856 10.5435 13.7483 10.5435 14.011C10.5435 15.7592 11.9656 17.1813 13.7138 17.1813C15.462 17.1813 16.8841 15.7592 16.8841 14.011C16.8841 12.2628 15.462 10.8407 13.7138 10.8407ZM13.7138 2.23565C14.7101 2.23565 15.5254 3.05087 15.5254 4.04724C15.5254 5.04362 14.7101 5.85884 13.7138 5.85884C13.0072 5.85884 12.3913 5.45123 12.0924 4.8534C11.9656 4.60884 11.9022 4.3371 11.9022 4.04724C11.9022 3.05087 12.7174 2.23565 13.7138 2.23565ZM3.75 10.8407C2.75362 10.8407 1.93841 10.0255 1.93841 9.02913C1.93841 8.03275 2.75362 7.21753 3.75 7.21753C4.45652 7.21753 5.07247 7.62514 5.37138 8.22297C5.49819 8.46753 5.5616 8.73927 5.5616 9.02913C5.5616 9.31898 5.48913 9.59978 5.37138 9.84434C5.06341 10.4331 4.45652 10.8407 3.75 10.8407ZM13.7138 15.8226C12.7174 15.8226 11.9022 15.0074 11.9022 14.011C11.9022 13.7212 11.9746 13.4404 12.0924 13.1958C12.4004 12.607 13.0072 12.1994 13.7138 12.1994C14.7101 12.1994 15.5254 13.0146 15.5254 14.011C15.5254 15.0074 14.7101 15.8226 13.7138 15.8226Z" fill="#333333"/>
</svg>
